<svg xmlns="http://www.w3.org/2000/svg" viewBox="0 0 20 21" width="20" height="21">
	<style>
		tspan { white-space:pre }
		.shp0 { fill: #ffffff } 
	</style>
	<g id="First / home">
		<path id="fa-dribbble" class="shp0" d="M13.34 18.75C12.31 19.2 11.19 19.46 10 19.46C7.93 19.46 6.04 18.69 4.56 17.42C4.56 17.42 4.68 17.5 4.75 17.57C6.39 13.82 11.46 11.96 11.46 11.96C11.47 11.96 11.5 11.95 11.51 11.95C12.71 15.23 13.21 17.96 13.34 18.75ZM10.93 10.46C10.82 10.5 10.71 10.53 10.59 10.57C10.59 10.57 5.98 12.13 3.65 16.49L3.65 16.49C2.29 14.9 1.46 12.8 1.46 10.5C1.46 10.41 1.46 10.31 1.47 10.21C1.61 10.21 5.83 10.32 10.24 8.94C10.48 9.45 10.72 9.95 10.93 10.46ZM9.53 7.56C5.43 8.7 1.86 8.66 1.64 8.66C2.2 5.88 3.97 3.57 6.36 2.4C6.47 2.56 8.05 4.8 9.53 7.56ZM18.44 11.92C18.05 14.42 16.7 16.58 14.78 17.93C14.69 17.4 14.23 14.76 13.11 11.53C15.88 11.07 18.26 11.87 18.44 11.92ZM7.96 1.8C7.94 1.8 7.93 1.81 7.93 1.81C7.94 1.8 7.94 1.8 7.96 1.8ZM15.64 3.78C15.61 3.82 14.4 5.76 11.19 7.02C9.73 4.2 8.11 1.97 7.98 1.8C8.63 1.63 9.31 1.54 10 1.54C12.16 1.54 14.14 2.38 15.64 3.78ZM18.55 10.41C18.44 10.39 15.54 9.72 12.59 10.12C12.53 9.97 12.48 9.8 12.41 9.65C12.23 9.22 12.03 8.78 11.84 8.36C15.21 6.91 16.58 4.83 16.6 4.8C17.8 6.33 18.52 8.29 18.55 10.41ZM20 10.5C20 4.71 15.52 0.01 10 0.01C4.48 0.01 0 4.71 0 10.5C0 16.29 4.48 21 10 21C15.52 21 20 16.29 20 10.5Z" />
	</g>
</svg>