<svg xmlns="http://www.w3.org/2000/svg" viewBox="0 0 23 20" width="23" height="20">
	<style>
		tspan { white-space:pre }
		.shp0 { fill: #ffffff } 
	</style>
	<g id="First / home">
		<path id="fa-flickr" class="shp0" d="M18.69 0.01L4.31 0.01C1.93 0.01 0 1.69 0 3.75L0 16.25C0 18.32 1.93 20 4.31 20L18.69 20C21.07 20 23 18.32 23 16.25L23 3.75C23 1.69 21.07 0.01 18.69 0.01ZM10.45 10C10.45 11.52 9.03 12.76 7.28 12.76C5.53 12.76 4.1 11.52 4.1 10C4.1 8.48 5.53 7.24 7.28 7.24C9.03 7.24 10.45 8.48 10.45 10ZM18.9 10C18.9 11.52 17.48 12.76 15.73 12.76C13.97 12.76 12.55 11.52 12.55 10C12.55 8.48 13.97 7.24 15.73 7.24C17.48 7.24 18.9 8.48 18.9 10Z" />
	</g>
</svg>