<svg xmlns="http://www.w3.org/2000/svg" viewBox="0 0 23 20" width="23" height="20">
	<style>
		tspan { white-space:pre }
		.shp0 { fill: #ffffff } 
	</style>
	<g id="First / home">
		<path id="fa-twitter" class="shp0" d="M23 2.38C22.16 2.77 21.24 3.05 20.29 3.16C21.27 2.53 22.01 1.55 22.36 0.38C21.46 0.96 20.43 1.38 19.37 1.6C18.51 0.61 17.28 0 15.92 0C13.31 0 11.21 2.27 11.21 5.05C11.21 5.44 11.25 5.83 11.32 6.2C7.41 5.99 3.92 3.99 1.6 0.92C1.19 1.67 0.96 2.53 0.96 3.47C0.96 5.22 1.79 6.77 3.06 7.67C2.29 7.64 1.56 7.41 0.93 7.03C0.93 7.05 0.93 7.08 0.93 7.1C0.93 9.55 2.55 11.58 4.71 12.05C4.32 12.16 3.89 12.22 3.47 12.22C3.16 12.22 2.87 12.19 2.58 12.14C3.18 14.14 4.92 15.59 6.99 15.64C5.37 17 3.34 17.8 1.13 17.8C0.74 17.8 0.37 17.78 -0.01 17.73C2.08 19.17 4.56 20 7.24 20C15.91 20 20.65 12.31 20.65 5.64C20.65 5.42 20.65 5.2 20.64 4.99C21.56 4.27 22.36 3.38 23 2.38Z" />
	</g>
</svg>