<svg xmlns="http://www.w3.org/2000/svg" viewBox="0 0 297 56" width="297" height="56">
	<style>
		tspan { white-space:pre }
		.shp0 { fill: #1abc9c } 
		.shp1 { fill: #16a085 } 
	</style>
	<g id="Seventh">
		<path id="Rettangolo 9 copia" class="shp0" d="M4 0L241 0L241 56L4 56C2.34 56 1 54.66 1 53L1 3C1 1.34 2.34 0 4 0Z" />
		<path id="Rettangolo 10 copia" class="shp1" d="M241 0L294 0C295.66 0 297 1.34 297 3L297 53C297 54.66 295.66 56 294 56L241 56L241 0ZM265.75 20.18C265.38 20.18 265.08 19.87 265.08 19.5C265.08 19.13 265.38 18.82 265.75 18.82C266.14 18.82 266.44 19.13 266.44 19.5C266.44 19.87 266.14 20.18 265.75 20.18ZM273.24 20.18C272.85 20.18 272.55 19.87 272.55 19.5C272.55 19.13 272.85 18.82 273.24 18.82C273.61 18.82 273.92 19.13 273.92 19.5C273.92 19.87 273.61 20.18 273.24 20.18ZM258.83 23.39C257.82 23.39 257 24.19 257 25.17L257 32.67C257 33.66 257.82 34.46 258.83 34.46C259.84 34.46 260.64 33.66 260.64 32.67L260.64 25.17C260.64 24.19 259.82 23.39 258.83 23.39ZM277.64 23.72L261.35 23.72L261.35 35.33C261.35 36.4 262.22 37.25 263.3 37.25L264.61 37.25L264.63 41.21C264.63 42.21 265.45 43.01 266.44 43.01C267.45 43.01 268.27 42.21 268.27 41.21L268.27 37.25L270.72 37.25L270.72 41.21C270.72 42.21 271.54 43.01 272.55 43.01C273.56 43.01 274.38 42.21 274.38 41.21L274.38 37.25L275.71 37.25C276.77 37.25 277.64 36.4 277.64 35.33L277.64 23.72ZM273.52 16.66L274.78 14.37C274.86 14.25 274.82 14.09 274.7 14.02C274.57 13.97 274.41 14.01 274.34 14.13L273.06 16.43C271.98 15.96 270.77 15.7 269.5 15.7C268.22 15.7 267.01 15.96 265.93 16.43L264.65 14.13C264.58 14.01 264.42 13.97 264.29 14.02C264.17 14.09 264.14 14.25 264.21 14.37L265.47 16.66C262.96 17.91 261.28 20.32 261.28 23.09L277.7 23.09C277.7 20.32 276.01 17.91 273.52 16.66ZM281.99 25.17C281.99 24.17 281.17 23.39 280.16 23.39C279.17 23.39 278.35 24.17 278.35 25.17L278.35 32.67C278.35 33.66 279.17 34.46 280.16 34.46C281.17 34.46 281.99 33.66 281.99 32.67L281.99 25.17Z" />
	</g>
</svg>