<svg xmlns="http://www.w3.org/2000/svg" viewBox="0 0 20 16" width="20" height="16">
	<style>
		tspan { white-space:pre }
		.shp0 { fill: #ffffff } 
	</style>
	<g id="Fifthy">
		<path id="fa-check" class="shp0" d="M20 3.12C20 2.79 19.87 2.45 19.64 2.21L17.88 0.38C17.65 0.13 17.33 0 17 0C16.68 0 16.36 0.13 16.13 0.38L7.66 9.23L3.87 5.25C3.63 5.01 3.31 4.87 2.99 4.87C2.67 4.87 2.34 5.01 2.11 5.25L0.36 7.08C0.12 7.33 0 7.66 0 8C0 8.34 0.12 8.67 0.36 8.92L5.03 13.79L6.78 15.62C7.02 15.87 7.34 16 7.66 16C7.98 16 8.31 15.87 8.54 15.62L10.29 13.79L19.64 4.04C19.87 3.8 20 3.46 20 3.12Z" />
	</g>
</svg>