<svg xmlns="http://www.w3.org/2000/svg" viewBox="0 0 64 60" width="64" height="60">
	<style>
		tspan { white-space:pre }
		.shp0 { fill: #16a085 } 
		.shp1 { fill: #ffffff } 
	</style>
	<g id="Fifthy">
		<path id="Rettangolo 8" class="shp0" d="M1 0L61 0C62.66 0 64 1.34 64 3L64 57C64 58.66 62.66 60 61 60L1 60L1 0Z" />
		<path id="fa-check" class="shp1" d="M44 27.12C44 26.79 43.87 26.45 43.64 26.21L41.88 24.38C41.65 24.13 41.33 24 41 24C40.68 24 40.36 24.13 40.13 24.38L31.66 33.23L27.87 29.25C27.63 29.01 27.31 28.87 26.99 28.87C26.67 28.87 26.34 29.01 26.11 29.25L24.36 31.08C24.12 31.33 24 31.66 24 32C24 32.34 24.12 32.67 24.36 32.92L29.03 37.79L30.78 39.62C31.02 39.87 31.34 40 31.66 40C31.98 40 32.31 39.87 32.54 39.62L34.29 37.79L43.64 28.04C43.87 27.8 44 27.46 44 27.12Z" />
	</g>
</svg>